<svg xmlns="http://www.w3.org/2000/svg" version="1.1" viewBox="222.35 230.77 67.29 53.26">
<g id="icomoon-ignore">
</g>
<path d="M280.904 246.016c-0.213-8.457-7.127-15.249-15.63-15.249-4.98 0-9.414 2.332-12.279 5.962-1.606-2.077-4.119-3.414-6.946-3.414-4.851 0-8.781 3.934-8.781 8.786 0 0.423 0.031 0.839 0.089 1.245-0.738-0.132-1.496-0.206-2.272-0.206-7.030-0-12.731 5.702-12.731 12.738s5.699 12.738 12.731 12.738h6.030l14.884 15.41 14.884-15.41 7.325-0c6.317-0.012 11.434-5.139 11.434-11.463 0-5.394-3.724-9.916-8.739-11.137zM256 277.027l-12.617-12.616h8.411v-12.617h8.412v12.617h8.411l-12.616 12.616z"/>
</svg>