<svg xmlns="http://www.w3.org/2000/svg" version="1.1" viewBox="224 224 64 64">
<g id="icomoon-ignore">
</g>
<path d="M287.415 275.416c-0-0-0-0-0-0l-19.414-19.414 19.414-19.415c0-0 0-0 0-0 0.209-0.209 0.361-0.453 0.457-0.714 0.265-0.711 0.114-1.542-0.457-2.114l-9.171-9.171c-0.572-0.571-1.404-0.722-2.115-0.458-0.26 0.096-0.505 0.248-0.714 0.457 0 0-0 0-0 0l-19.414 19.415-19.415-19.415c-0-0-0-0-0-0-0.209-0.208-0.453-0.36-0.714-0.457-0.712-0.266-1.542-0.114-2.114 0.458l-9.171 9.171c-0.571 0.571-0.723 1.404-0.458 2.114 0.097 0.26 0.249 0.505 0.457 0.714 0 0 0 0 0 0l19.415 19.415-19.415 19.414c-0 0-0 0-0 0-0.208 0.209-0.36 0.454-0.458 0.714-0.266 0.711-0.114 1.543 0.458 2.115l9.171 9.171c0.571 0.572 1.404 0.723 2.114 0.457 0.26-0.097 0.505-0.248 0.714-0.457 0-0 0-0 0-0l19.414-19.414 19.414 19.414c0 0 0 0 0 0 0.209 0.209 0.454 0.361 0.714 0.457 0.712 0.265 1.543 0.115 2.115-0.457l9.171-9.171c0.572-0.572 0.724-1.404 0.457-2.115-0.097-0.26-0.248-0.505-0.457-0.714z"/>
</svg>