<svg xmlns="http://www.w3.org/2000/svg" version="1.1" viewBox="224 224 64 64">
<g id="icomoon-ignore">
</g>
<path d="M286.016 278.462l-15.159-12.894c-1.567-1.411-3.243-2.058-4.597-1.995 3.579-4.192 5.74-9.63 5.74-15.573 0-13.255-10.745-24-24-24s-24 10.745-24 24 10.745 24 24 24c5.944 0 11.382-2.161 15.573-5.74-0.063 1.353 0.585 3.029 1.995 4.597l12.894 15.159c2.207 2.452 5.813 2.659 8.014 0.459s1.993-5.806-0.459-8.014zM248 264c-8.837 0-16-7.163-16-16s7.163-16 16-16 16 7.163 16 16-7.163 16-16 16z"/>
</svg>