<svg xmlns="http://www.w3.org/2000/svg" width="64" height="64" viewBox="0 0 512 512"><path fill="#fad52a" d="m457 306-72-165c-4-8-24-9-24-9H151s-20 1-24 9L55 306a187 187 0 0 0-16 76v27c0 31 24 55 55 55h324c31 0 55-24 55-55v-27c0-27-5-52-16-76z"/><path fill="#ffea5e" d="M256 132H151s-20 1-24 9L55 306a187 187 0 0 0-16 76v27c0 31 24 55 55 55h162V132z"/><path fill="#f90" d="M365 48H147C66 48 0 114 0 196c0 24 20 43 44 43h76c22 0 41-18 41-41v-22c0-16 13-29 29-29h132c16 0 29 13 29 29v22c0 23 19 41 41 41h76c24 0 44-19 44-43 0-82-66-148-147-148z"/><path fill="#fad52a" d="M256 48H147C66 48 0 114 0 196c0 24 20 43 44 43h76c22 0 41-18 41-41v-22c0-16 13-29 29-29h66V48z"/><path d="M351 202c3 21 20 37 41 37h76c22 0 40-16 43-37H351z" class="B"/><g class="C"><path d="M1 202c3 21 21 37 43 37h76c21 0 38-16 41-37H1z"/><circle cx="197.6" cy="255.3" r="18.5"/></g><circle cx="256" cy="255.3" r="18.5" class="B"/><use class="C" href="#B"/><circle cx="256" cy="311.5" r="18.5" class="B"/><use y="56.2" class="C" href="#B"/><circle cx="256" cy="367.7" r="18.5" class="B"/><use y="112.4" class="C" href="#B"/><circle cx="314.4" cy="255.3" r="18.5" class="B"/><circle cx="197.6" cy="311.5" r="18.5" class="C"/><circle cx="314.4" cy="311.5" r="18.5" class="B"/><circle cx="197.6" cy="367.7" r="18.5" class="C"/><circle cx="314.4" cy="367.7" r="18.5" class="B"/><defs><path id="B" d="M256 274a18 18 0 0 1-18-19 18 18 0 0 1 18-18v37z"/></defs></svg>