<svg xmlns="http://www.w3.org/2000/svg" width="50" height="50"><path d="m0 50 4.3-12.898A24.43 24.43 0 0 1 .864 24.57C.863 11 11.863 0 25.43 0 39 0 50 11 50 24.57c0 13.567-11 24.567-24.57 24.567A24.47 24.47 0 0 1 14 46.317Zm0 0" style="stroke:none;fill-rule:nonzero;fill:#2cb742;fill-opacity:1"/><path d="M41.105 32.746c-1.132-2.144-5.316-4.598-5.316-4.598-.95-.539-2.09-.597-2.629.364 0 0-1.36 1.629-1.707 1.863-1.578 1.07-3.043 1.031-4.52-.445l-3.43-3.434-3.433-3.43c-1.476-1.476-1.515-2.941-.445-4.52.234-.347 1.863-1.706 1.863-1.706.961-.54.903-1.68.364-2.63 0 0-2.454-4.183-4.598-5.315a2.35 2.35 0 0 0-2.762.414l-1.515 1.515c-4.809 4.809-2.442 10.235 2.367 15.043l8.789 8.79c4.808 4.808 10.234 7.175 15.043 2.366l1.515-1.515c.73-.73.899-1.852.414-2.762m0 0" style="stroke:none;fill-rule:nonzero;fill:#fff;fill-opacity:1"/></svg>