<svg xmlns="http://www.w3.org/2000/svg" width="50" height="50"><path d="M50 9.098a20 20 0 0 1-5.89 1.656 10.48 10.48 0 0 0 4.511-5.816 20.2 20.2 0 0 1-6.52 2.546c-1.867-2.043-4.535-3.316-7.484-3.316-5.664 0-10.254 4.707-10.254 10.516q-.001 1.237.262 2.398C16.102 16.641 8.543 12.457 3.48 6.086a10.7 10.7 0 0 0-1.386 5.293c0 3.648 1.808 6.871 4.562 8.758a10.1 10.1 0 0 1-4.648-1.313v.13c0 5.097 3.535 9.35 8.23 10.312a9.8 9.8 0 0 1-2.703.37q-.991 0-1.93-.187c1.305 4.176 5.094 7.219 9.583 7.301-3.512 2.824-7.938 4.508-12.739 4.508-.828 0-1.648-.051-2.449-.145 4.54 2.977 9.934 4.719 15.723 4.719 18.87 0 29.187-16.023 29.187-29.926q0-.687-.027-1.363A21 21 0 0 0 50 9.098" style="stroke:none;fill-rule:evenodd;fill:#00aaec;fill-opacity:1"/></svg>