<svg xmlns="http://www.w3.org/2000/svg" width="64" height="64" viewBox="0 0 1024 1024"><path fill="#27323a" d="M913.9 369.9a32.8 32.8 0 0 0-23.3-9.7H660.5l51.3-67.7a24.7 24.7 0 0 0 2.5-25.9 24.6 24.6 0 0 0-22.1-13.7h-72.4V120.1c0-13.6-11-24.7-24.7-24.7H429.7c-13.7 0-24.7 11-24.7 24.7V253h-73.7a24.7 24.7 0 0 0-22 13.7 24.7 24.7 0 0 0 2.4 26l51.2 67.6H133a32.8 32.8 0 0 0-23.3 9.7 32.8 32.8 0 0 0-9.6 23.3v498a32.8 32.8 0 0 0 9.6 23.4 32.8 32.8 0 0 0 23.3 9.6h757.7c8.4 0 16.8-3.2 23.3-9.6a32.8 32.8 0 0 0 9.6-23.3V393.2a32.8 32.8 0 0 0-9.6-23.3z"/><path fill="#fff" d="M429.7 302.3c13.6 0 24.7-11 24.7-24.7V144.8h116v132.8c0 13.6 11.1 24.7 24.7 24.7h47.3L511.8 474.5 381 302.3h48.6z"/><path fill="#79ccbf" d="m400.4 409.6 91.7 120.7a24.7 24.7 0 0 0 39.3 0L623 409.6h209.3l-322 277.7-319.5-277.7h209.6z"/><path fill="#f4ce73" d="m149.4 439.1 170 147.8-170 236zm23.5 435.7 184-255.4 120.9 105.1a51.4 51.4 0 0 0 67.9 0l121-105 183.9 255.3H172.9zm701.2-51.9-170-236L874 439z"/></svg>